<?xml version="1.0" standalone="no"?>
<!DOCTYPE svg PUBLIC "-//W3C//DTD SVG 20010904//EN"
 "http://www.w3.org/TR/2001/REC-SVG-20010904/DTD/svg10.dtd">
<svg version="1.0" xmlns="http://www.w3.org/2000/svg"
 width="972.000000pt" height="972.000000pt" viewBox="0 0 972.000000 972.000000"
 preserveAspectRatio="xMidYMid meet">
<metadata>
Created by potrace 1.11, written by Peter Selinger 2001-2013
</metadata>
<g transform="translate(0.000000,972.000000) scale(0.100000,-0.100000)"
fill="#000000" stroke="none">
<path d="M4640 9699 c-1063 -45 -2070 -437 -2905 -1130 -205 -170 -496 -470
-679 -699 -266 -331 -543 -801 -695 -1176 -351 -872 -448 -1832 -275 -2737 22
-117 29 -138 43 -133 50 16 164 61 230 92 42 20 137 62 211 94 108 47 414 200
515 258 11 6 94 46 186 90 91 43 201 102 245 131 77 51 80 52 134 46 30 -3 92
-15 138 -26 46 -10 94 -19 107 -19 13 0 26 -4 30 -9 3 -6 27 -13 53 -16 26 -3
81 -14 122 -23 64 -14 127 -17 415 -15 l340 2 245 40 c135 23 295 52 355 66
61 14 180 37 265 50 85 14 193 34 240 45 86 21 262 52 515 90 77 11 179 30
227 42 74 18 93 20 126 10 47 -14 207 -15 423 -2 166 10 228 22 517 106 115
33 158 42 172 34 10 -5 74 -10 142 -10 68 0 215 -5 328 -10 284 -14 759 -14
793 -1 16 6 48 11 72 11 59 0 325 46 402 70 33 10 108 24 165 30 56 6 132 19
168 29 36 10 79 22 95 26 71 16 328 37 555 45 236 8 330 20 405 51 20 8 100
13 245 14 118 1 257 5 308 10 l92 8 -6 66 c-55 614 -208 1174 -468 1716 -169
352 -372 665 -644 995 -117 141 -471 497 -607 609 -960 793 -2113 1183 -3345
1130z"/>
<path d="M9679 4876 c-3 -3 -126 -14 -275 -25 -237 -18 -296 -19 -489 -10
-121 6 -242 7 -270 3 -27 -4 -241 -8 -475 -10 -490 -2 -593 -8 -775 -39 -183
-32 -350 -37 -747 -25 l-383 12 -210 -31 c-115 -16 -244 -33 -285 -36 -41 -4
-144 -20 -228 -36 -303 -57 -620 -89 -937 -94 -245 -4 -460 -29 -685 -80 -58
-13 -145 -29 -195 -35 -49 -6 -160 -27 -245 -45 -85 -19 -229 -46 -320 -60
-91 -14 -187 -31 -215 -37 -31 -7 -215 -12 -490 -14 -242 -2 -525 -7 -630 -13
-184 -10 -195 -12 -390 -66 -110 -31 -227 -67 -260 -81 -33 -13 -69 -24 -81
-24 -11 0 -92 -37 -180 -82 -156 -79 -435 -206 -604 -275 -47 -18 -104 -42
-127 -53 l-42 -19 41 -153 c194 -735 620 -1477 1183 -2056 733 -755 1665
-1245 2695 -1416 299 -50 440 -60 800 -60 360 0 501 10 800 60 866 144 1649
506 2345 1085 136 113 459 438 576 579 250 300 446 596 613 924 323 633 499
1316 523 2024 6 187 6 192 -14 192 -11 0 -22 -2 -24 -4z"/>
</g>
</svg>
